<svg xmlns="http://www.w3.org/2000/svg" viewBox="0 0 512 512">
  <defs>
    <linearGradient id="bg" x1="0" y1="0" x2="1" y2="1">
      <stop offset="0" stop-color="#1e3a5f"/>
      <stop offset="1" stop-color="#0f2440"/>
    </linearGradient>
    <linearGradient id="accent" x1="0" y1="0" x2="1" y2="1">
      <stop offset="0" stop-color="#ffb347"/>
      <stop offset="1" stop-color="#ff8c00"/>
    </linearGradient>
  </defs>
  <!-- 六角ボルト(建設)の外形 -->
  <path d="M256 28 L452 141 L452 371 L256 484 L60 371 L60 141 Z" fill="url(#bg)"/>
  <path d="M256 56 L428 155 L428 357 L256 456 L84 357 L84 155 Z" fill="none" stroke="#3d5a80" stroke-width="6"/>
  <!-- 自動を表す循環矢印 -->
  <path d="M256 116 A140 140 0 1 1 134 186" fill="none" stroke="url(#accent)" stroke-width="30" stroke-linecap="round"/>
  <path d="M150 130 L134 196 L200 184 Z" fill="#ffb347"/>
  <!-- J -->
  <path d="M292 168 L292 312 Q292 360 246 360 Q210 360 200 326" fill="none" stroke="#ffffff" stroke-width="34" stroke-linecap="round"/>
  <rect x="252" y="150" width="80" height="34" rx="17" fill="#ffffff"/>
</svg>
